{
 "cells": [
  {
   "cell_type": "markdown",
   "metadata": {},
   "source": [
    "# FFmpeg example: compression"
   ]
  },
  {
   "cell_type": "code",
   "execution_count": 34,
   "metadata": {},
   "outputs": [],
   "source": [
    "!export PATH=$PWD/ffmpeg-4.2.2-amd64-static:$PATH\n",
    "import ffmpeg\n",
    "import sys"
   ]
  },
  {
   "cell_type": "code",
   "execution_count": 7,
   "metadata": {},
   "outputs": [
    {
     "name": "stdout",
     "output_type": "stream",
     "text": [
      "{'avg_frame_rate': '24/1',\n",
      " 'bit_rate': '1885348',\n",
      " 'bits_per_raw_sample': '8',\n",
      " 'chroma_location': 'left',\n",
      " 'codec_long_name': 'H.264 / AVC / MPEG-4 AVC / MPEG-4 part 10',\n",
      " 'codec_name': 'h264',\n",
      " 'codec_tag': '0x31637661',\n",
      " 'codec_tag_string': 'avc1',\n",
      " 'codec_time_base': '1/48',\n",
      " 'codec_type': 'video',\n",
      " 'coded_height': 368,\n",
      " 'coded_width': 864,\n",
      " 'display_aspect_ratio': '12:5',\n",
      " 'disposition': {'attached_pic': 0,\n",
      "                 'clean_effects': 0,\n",
      "                 'comment': 0,\n",
      "                 'default': 1,\n",
      "                 'dub': 0,\n",
      "                 'forced': 0,\n",
      "                 'hearing_impaired': 0,\n",
      "                 'karaoke': 0,\n",
      "                 'lyrics': 0,\n",
      "                 'original': 0,\n",
      "                 'timed_thumbnails': 0,\n",
      "                 'visual_impaired': 0},\n",
      " 'duration': '10.000000',\n",
      " 'duration_ts': 122880,\n",
      " 'has_b_frames': 2,\n",
      " 'height': 360,\n",
      " 'index': 0,\n",
      " 'is_avc': 'true',\n",
      " 'level': 30,\n",
      " 'nal_length_size': '4',\n",
      " 'nb_frames': '240',\n",
      " 'pix_fmt': 'yuv420p',\n",
      " 'profile': 'High',\n",
      " 'r_frame_rate': '24/1',\n",
      " 'refs': 1,\n",
      " 'sample_aspect_ratio': '1:1',\n",
      " 'start_pts': 0,\n",
      " 'start_time': '0.000000',\n",
      " 'tags': {'handler_name': 'VideoHandler', 'language': 'und'},\n",
      " 'time_base': '1/12288',\n",
      " 'width': 864}\n"
     ]
    }
   ],
   "source": [
    "# Print input video information.\n",
    "import pprint as pp\n",
    "\n",
    "probe = ffmpeg.probe('input.mp4')\n",
    "video_info = next(s for s in probe['streams'] if s['codec_type'] == 'video')\n",
    "pp.pprint(video_info)"
   ]
  },
  {
   "cell_type": "code",
   "execution_count": 32,
   "metadata": {},
   "outputs": [
    {
     "name": "stdout",
     "output_type": "stream",
     "text": [
      "ffmpeg version 4.2.2 Copyright (c) 2000-2019 the FFmpeg developers\n",
      "  built with Apple clang version 11.0.0 (clang-1100.0.33.17)\n",
      "  configuration: --prefix=/usr/local/Cellar/ffmpeg/4.2.2_3 --enable-shared --enable-pthreads --enable-version3 --enable-avresample --cc=clang --host-cflags=-fno-stack-check --host-ldflags= --enable-ffplay --enable-gnutls --enable-gpl --enable-libaom --enable-libbluray --enable-libmp3lame --enable-libopus --enable-librubberband --enable-libsnappy --enable-libsrt --enable-libtesseract --enable-libtheora --enable-libvidstab --enable-libvorbis --enable-libvpx --enable-libwebp --enable-libx264 --enable-libx265 --enable-libxvid --enable-lzma --enable-libfontconfig --enable-libfreetype --enable-frei0r --enable-libass --enable-libopencore-amrnb --enable-libopencore-amrwb --enable-libopenjpeg --enable-librtmp --enable-libspeex --enable-libsoxr --enable-videotoolbox --disable-libjack --disable-indev=jack\n",
      "  libavutil      56. 31.100 / 56. 31.100\n",
      "  libavcodec     58. 54.100 / 58. 54.100\n",
      "  libavf\n",
      "ormat    58. 29.100 / 58. 29.100\n",
      "  libavdevice    58.  8.100 / 58.  8.100\n",
      "  libavfilter     7. 57.100 /  7. 57.100\n",
      "  libavresample   4.  0.  0 /  4.  0.  0\n",
      "  libswscale      5.  5.100 /  5.  5.100\n",
      "  libswresample   3.  5.100 /  3.  5.100\n",
      "  libpostproc    55.  5.100 / 55.  5.100\n",
      "Input #0, mov,mp4,m4a,3gp,3g2,mj2, from 'input.mp4':\n",
      "  Metadata:\n",
      "    major_brand     : isom\n",
      "    minor_version   : 512\n",
      "    compatible_brands: isomiso2avc1mp41\n",
      "    encoder         : Lavf58.29.100\n",
      "  Duration: 00:00:10.02, start: 0.000000, bitrate: 2018 kb/s\n",
      "    Stream #0:0(und): Video: h264 (High) (avc1 / 0x31637661), yuv420p, 864x360 [SAR 1:1 DAR 12:5], 1885 kb/s, 24 fps, 24 tbr, 12288 tbn, 48 tbc (default)\n",
      "    Metadata:\n",
      "      handler_name    : VideoHandler\n",
      "    Stream #0:1(und): Audio: aac (LC) (mp4a / 0x6134706D), 48000 Hz, stereo, fltp, 128 kb/s (default)\n",
      "    Metadata:\n",
      "      handler_name    : SoundHandler\n",
      "Stream mapping:\n",
      "  Stream #0:0 -> #0:0 (h264 (native) -> h264 (libx264))\n",
      "  Stream #0:1 -> #0:1 (aac (native) -> aac (native))\n",
      "Press [\n",
      "q] to stop, [?] for help\n",
      "[libx264 @ 0x7fc474803800] using SAR=1/1\n",
      "[libx264 @ 0x7fc474803800] using cpu capabilities: MMX2 SSE2Fast SSSE3 SSE4.2 AVX FMA3 BMI2 AVX2\n",
      "[libx264 @ 0x7fc474803800] profile High, level 3.2\n",
      "[libx264 @ 0x7fc474803800] 264 - core 155 r2917 0a84d98 - H.264/MPEG-4 AVC codec - Copyleft 2003-2018 - http://www.videolan.org/x264.html - options: cabac=1 ref=16 deblock=1:0:0 analyse=0x3:0x133 me=umh subme=10 psy=1 psy_rd=1.00:0.00 mixed_ref=1 me_range=24 chroma_me=1 trellis=2 8x8dct=1 cqm=0 deadzone=21,11 fast_pskip=1 chroma_qp_offset=-2 threads=11 lookahead_threads=1 sliced_threads=0 nr=0 decimate=1 interlaced=0 bluray_compat=0 constrained_intra=0 bframes=8 b_pyramid=2 b_adapt=2 b_bias=0 direct=3 weightb=1 open_gop=0 weightp=2 keyint=250 keyint_min=24 scenecut=40 intra_refresh=0 rc_lookahead=60 rc=crf mbtree=1 crf=23.0 qcomp=0.60 qpmin=0 qpmax=69 qpstep=4 ip_ratio=1.40 aq=1:1.00\n",
      "Output #0, mp4, to 'output.mp4':\n",
      "  Metadata:\n",
      "    major_brand     : isom\n",
      "    minor_version   : 512\n",
      "    compatible_bran\n",
      "ds: isomiso2avc1mp41\n",
      "    encoder         : Lavf58.29.100\n",
      "    Stream #0:0(und): Video: h264 (libx264) (avc1 / 0x31637661), yuv420p, 864x360 [SAR 1:1 DAR 12:5], q=-1--1, 24 fps, 12288 tbn, 24 tbc (default)\n",
      "    Metadata:\n",
      "      handler_name    : VideoHandler\n",
      "      encoder         : Lavc58.54.100 libx264\n",
      "    Side data:\n",
      "      cpb: bitrate max/min/avg: 0/0/0 buffer size: 0 vbv_delay: -1\n",
      "    Stream #0:1(und): Audio: aac (LC) (mp4a / 0x6134706D), 48000 Hz, stereo, fltp, 128 kb/s (default)\n",
      "    Metadata:\n",
      "      handler_name    : SoundHandler\n",
      "      encoder         : Lavc58.54.100 aac\n",
      "frame=  176 fps= 69 q=28.0 size=     256kB time=00:00:06.86 bitrate=   0.1kbits/s speed=3.39x    \n",
      "frame=  240 fps= 43 q=-1.0 Lsize=    1148kB time=00:00:10.00 bitrate= 940.1kbits/s speed=1.78x    \n",
      "video:980kB audio:158kB subtitle:0kB other streams:0kB global headers:0kB muxing overhead: 0.955552%\n",
      "[libx264 @ 0x7fc474803800] frame I:3     Avg QP:20.65  size: 57033\n",
      "[libx264 @ 0x7fc474803800] frame P:61    Avg QP:23.83  size: 11672\n",
      "[libx264 @ 0x7fc474803800] frame B:176   Avg QP:29.63  size:   679\n",
      "[libx264 @ 0x7fc474803800] consecutive B-frames:  1.7%  1.7%  1.2% 93.3%  2.1%  0.0%  0.0%  0.0%  0.0%\n",
      "[libx264 @ 0x7fc474803800] mb I  I16..4:  2.8% 54.0% 43.2%\n",
      "[libx264 @ 0x7fc474803800] mb P  I16..4:  0.2%  1.5%  0.5%  P16..4: 38.0% 17.2% 19.5%  1.6%  1.1%    skip:20.5%\n",
      "[libx264 @ 0\n",
      "x7fc474803800] mb B  I16..4:  0.0%  0.0%  0.0%  B16..8: 30.2%  1.9%  0.5%  direct: 0.6%  skip:66.8%  L0:36.9% L1:49.5% BI:13.5%\n",
      "[libx264 @ 0x7fc474803800] 8x8 transform intra:59.1% inter:42.1%\n",
      "[libx264 @ 0x7fc474803800] direct mvs  spatial:96.6% temporal:3.4%\n",
      "[libx264 @ 0x7fc474803800] coded y,uvDC,uvAC intra: 83.5% 83.0% 58.5% inter: 10.5% 8.1% 1.8%\n",
      "[libx264 @ 0x7fc474803800] i16 v,h,dc,p: 44% 11% 13% 32%\n",
      "[libx264 @ 0x7fc474803800] i8 v,h,dc,ddl,ddr,vr,hd,vl,hu: 30% 10% 12%  6%  7% 10%  6% 10%  9%\n",
      "[libx264 @ 0x7fc474803800] i4 v,h,dc,ddl,ddr,vr,hd,vl,hu: 22% 12%  7%  7%  9% 11%  9% 10% 12%\n",
      "[libx264 @ 0x7fc474803800] i8c dc,h,v,p: 42% 17% 29% 12%\n",
      "[libx264 @ 0x7fc474803800] Weighted P-Frames: Y:0.0% UV:0.0%\n",
      "[libx264 @ 0x7fc474803800] ref P L0: 56.1% 17.8% 10.0%  6.6%  2.1%  1.8%  1.2%  0.7%  0.7%  0.6%  0.5%  0.4%  0.4%  0.5%  0.4%  0.3%\n",
      "[libx264 @ 0x7fc474803800] ref B L0: 86.1%  7.1%  5.1%  0.9%  0.2%  0.2%  0.2%  0.1%  0.0%  0.0%  0.0%  0.0%  0.0%  0.0%  0.0%\n",
      "[libx264 @ 0x7fc474803800] ref B L1: 93.9%  6.1%\n",
      "\n",
      "[libx264 @ 0x7fc474803800] kb/s:802.01\n",
      "[aac @ 0x7fc474805000] Qavg: 173.038\n",
      "\n",
      "Compression done!\n"
     ]
    }
   ],
   "source": [
    "# Compress video to a target bitrate\n",
    "\n",
    "in_filename = \"input.mp4\"\n",
    "out_filename = \"output.mp4\"\n",
    "bitrate = \"1000k\"\n",
    "\n",
    "try:\n",
    "    proc = (ffmpeg\n",
    "        .input(in_filename)\n",
    "        .output(out_filename, bitrate=bitrate, preset='medium')\n",
    "        .overwrite_output()\n",
    "        .run_async(pipe_stdout=True, pipe_stderr=True)\n",
    "    )\n",
    "    while True:\n",
    "      msg = proc.stderr.read(1024)\n",
    "      if not msg:\n",
    "        break\n",
    "      print(msg.decode('utf-8'))\n",
    "    \n",
    "    print('Compression is done!')\n",
    "    \n",
    "except ffmpeg.Error as e:\n",
    "    print(e.stderr.decode(), file=sys.stderr)\n",
    "    sys.exit(1)"
   ]
  }
 ],
 "metadata": {
  "kernelspec": {
   "display_name": "Python 3",
   "language": "python",
   "name": "python3"
  },
  "language_info": {
   "codemirror_mode": {
    "name": "ipython",
    "version": 3
   },
   "file_extension": ".py",
   "mimetype": "text/x-python",
   "name": "python",
   "nbconvert_exporter": "python",
   "pygments_lexer": "ipython3",
   "version": "3.7.7"
  }
 },
 "nbformat": 4,
 "nbformat_minor": 4
}
